<svg xmlns="http://www.w3.org/2000/svg" viewBox="0 0 112.85 30.82"><defs><style>.cls-1{fill:#c4bbbb;}</style></defs><g id="图层_2" data-name="图层 2"><g id="图层_1-2" data-name="图层 1"><path class="cls-1" d="M108.54,19.25c-1.51-1-2.07-.25-2.22,1.27-.27,2.81.24,5.7-.79,8.45-.27.75.21,1.31.68,1.85h.47a2.92,2.92,0,0,0,1.36-3c-.1-1.39-.09-2.78-.14-4.18-.06-1.79.22-2.91,2.42-1.61,1.51.89,2.58.46,2.53-1.5C111.74,19.11,109.86,20.1,108.54,19.25Z"/><path class="cls-1" d="M13.21,10c-1.52,0-.94,1.42-1,2.33-.12,1.86-.27,3.71-.3,5.57,0,1-.43,1.58-1.48,1.65s-2.34.2-3.52.23-1.55-.36-1.4-1.68c.41-3.45.59-6.92.8-10.38.05-1,.1-2.38-1.29-2.29a19.11,19.11,0,0,0-3.47.27A1.8,1.8,0,0,0,.08,8c.32,1.06,1.31.83,2.18.53.58-.19,1.18-.32,1.68-.45,0,2.52-.07,5,0,7.42.14,3.94-.79,7.78-1.1,11.68-.07.92.17,1.6,1.09,1.74,1.07.16,1.28-.59,1.31-1.47,0-1.84-.3-3.83.29-5.49.83-2.31,3.36-.19,4.9-1.17.37-.23,1.15-.35,1.21.54a7.19,7.19,0,0,1-.05.92c-.08,1.08-.14,2.17-.22,3.25S10.92,28,12.51,28c1.42,0,.89-1.57.87-2.46a37.81,37.81,0,0,1,0-4.64c.27-2.85.47-5.7.63-8.56C14.11,11.45,14.47,10.05,13.21,10Z"/><path class="cls-1" d="M86.32,27.13c-.87,0-1.73,0-2.59-.09-1.44-.08-2.2-.46-2-2.25.64-7.45,1-14.92,1.64-22.38.08-1,.06-1.52-1-1.51-.91,0-1.64.33-1.34,1.38.49,1.69,0,3.4.23,5.09-.11,1.85-.24,3.69-.32,5.54-.2,4.71-.67,9.4-.49,14.12,0,.79-.09,1.59,1,1.74a38.21,38.21,0,0,1,4.87.65,1.14,1.14,0,0,0,1.49-1.09C87.77,27.46,87.1,27.17,86.32,27.13Z"/><path class="cls-1" d="M28.17,27.44c-1.91.17-2.82-.2-2.75-2.42.17-4.86-.09-9.73.09-14.58.09-2.52,0-5.12,1-7.53A2.24,2.24,0,0,0,26.1.35a1.37,1.37,0,0,0-1.55-.2c-1,.46-1.1,1.44-1,2.38.58,4.3.15,8.63.3,12.94.17,3.32.38,6.65.48,10,.12,3.74.09,3.83,3.76,3.52,1.07-.09,3.15.65,3.06-1C31.09,26.42,29.21,27.35,28.17,27.44Z"/><path class="cls-1" d="M93.88,27.5c-1.86.25-2.28-.82-2.41-2.31A24.36,24.36,0,0,1,91.38,19c.93-5.48.43-11.09,1.61-16.54.23-1.08-.61-1.59-1.51-1.68s-1.14.6-1,1.41c.64,5.73-.34,11.43-.51,17.14.07,2.53-.55,5.08.2,7.61.55,1.88,2,2.4,3.69,2.61a1.18,1.18,0,0,0,1.46-1.15C95.26,27.57,94.49,27.42,93.88,27.5Z"/><path class="cls-1" d="M58.17,15.71C58,11.15,57.43,6.6,58,2c.08-.63.11-1.24-.67-1.55a1.9,1.9,0,0,0-2,.2c-.64.52-.26,1.15-.05,1.7A11.14,11.14,0,0,1,56,7c-.29,5.38,1.72,10.57,1.37,16-.1,1.78-.2,3.55-.29,5.33,0,.52-.21,1.18.63,1.22A1,1,0,0,0,59,28.37c0-.61,0-1.23-.07-1.85C58.64,22.91,58.33,19.32,58.17,15.71Z"/><path class="cls-1" d="M51.75,27.62c-2.29.55-2.45-1.23-2.39-2.44.21-4.48-1.81-6.38-6.31-6.45-1.79,0-2.2.28-2,1.92.2,2.29.83,4.58.24,6.89-.16.63-.42,1.32.51,1.45s1.29-.54,1.31-1.29c0-1-.09-2-.15-3h-.09a7.89,7.89,0,0,0,0-2.53c-.48-1.29.35-1.27,1.11-1.39a3.08,3.08,0,0,1,3.78,2.84c.21,1.37.45,2.74.69,4.11a2.36,2.36,0,0,0,3.33,2.08c.53-.16,1.15-.36,1-1C52.6,28.28,52.42,27.46,51.75,27.62Z"/><path class="cls-1" d="M63.45,16.47a2.63,2.63,0,0,1,.18-3,55.83,55.83,0,0,0,3.25-5.6c.36-.7,1.28-1.8-.07-2.37C65.66,5,65.5,6.26,65.14,7c-1,2.06-2,4.17-3.06,6.23a3.52,3.52,0,0,0-.22,3.29,106.12,106.12,0,0,1,4.2,12c.22.69.45,1.33,1.22,1.39a1,1,0,0,0,.89-1.67C65.82,24.57,65.58,20.15,63.45,16.47Z"/><path class="cls-1" d="M76.26,27.06l-2.55-.38c-2.71-.37-3.51-2.21-1.84-4.39a13.72,13.72,0,0,1,2.07-1.87c.66-.57,1-1.25.5-2-.73-1-.38-1.65.55-2.27.54-.36,1-1.14.13-1.41s-1.48,1-2.32,1.35-1,1-.52,1.51c1.42,1.48.24,2.11-.72,3-2.29,2.17-2.4,4.67-.78,6.66C72.2,29,74.16,28.49,76.12,29c.36,0,1.14.28,1.24-.65C77.45,27.6,77,27.18,76.26,27.06Z"/><path class="cls-1" d="M36.67,27.94c-1.67-.22-2.37-1.13-2.27-2.86S36,22.58,37,21.41c-.32-.28-.38-.37-.44-.37-1,0-2.32.6-2.76-.87s.6-1.51,1.69-1.77c.82-.19.7-1.25.33-1.78s-1.28-.49-1.91-.11c-1.35.8-2.18,3.34-1.18,4.49,1.13,1.31.84,2.44.43,3.78-.71,2.34.4,4,2.22,5.36,1,.71,1.76.21,2.58-.26a1.09,1.09,0,0,0,.61-1.16C38.34,27.6,37.4,28,36.67,27.94Z"/><path class="cls-1" d="M20.24,27.28c-2.36,0-3.1-1.33-2-3.47.66-1.33,1.94-1.89,3.46-2.76-1.28-.66-2.28-1-2.83-1.88s-.59-1.65.59-1.92c.6-.14,1.1-.19,1-.94-.05-.38-.17-.77-.62-.89a1.4,1.4,0,0,0-1.47.46c-1.19,1.28-1.81,3.24-.72,4.2,1.81,1.57.42,2.05-.3,3.06-1,1.44-1.51,2.95-.41,4.72.8,1.29,2,1.4,3.2,1.53a1.46,1.46,0,0,0,1.74-1.47C21.85,26.72,20.84,27.29,20.24,27.28Z"/><path class="cls-1" d="M100.54,28.38c-1.53.08-2.64-.45-2.52-2.19.09-1.41.4-2.81,1.76-3.62.7-.41,1.09-.83.83-1.66-.33-1.05-.07-1.85,1.1-2.14.91-.22.84-.82.56-1.42s-.86-.57-1.42-.37a2.72,2.72,0,0,0-1.91,2.67A3.87,3.87,0,0,1,97.8,22.4a5.07,5.07,0,0,0-1,5.44c.61,1.48,1.45,2.58,3,2.28a2,2,0,0,0,2.48-.84,1,1,0,0,0,.07-.87C101.84,27.58,101.18,28.35,100.54,28.38Z"/></g></g></svg>